solid CATIA STL
  facet normal  0.000000e+00  0.000000e+00 -1.000000e+00
    outer loop
      vertex  2.693833e+03 -3.950000e+02  1.610204e+02
      vertex  2.581106e+03 -3.950000e+02  1.610204e+02
      vertex  2.693833e+03 -1.905000e+02  1.610204e+02
    endloop
  endfacet
  facet normal  -0.000000e+00  0.000000e+00 -1.000000e+00
    outer loop
      vertex  2.693833e+03 -1.905000e+02  1.610204e+02
      vertex  2.581106e+03 -3.950000e+02  1.610204e+02
      vertex  2.581106e+03 -1.905000e+02  1.610204e+02
    endloop
  endfacet
  facet normal  0.000000e+00  0.000000e+00 -1.000000e+00
    outer loop
      vertex  2.693833e+03 -1.905000e+02  1.610204e+02
      vertex  2.581106e+03 -1.905000e+02  1.610204e+02
      vertex  2.693833e+03  1.400000e+01  1.610204e+02
    endloop
  endfacet
  facet normal  -0.000000e+00  0.000000e+00 -1.000000e+00
    outer loop
      vertex  2.693833e+03  1.400000e+01  1.610204e+02
      vertex  2.581106e+03 -1.905000e+02  1.610204e+02
      vertex  2.581106e+03  1.400000e+01  1.610204e+02
    endloop
  endfacet
  facet normal  0.000000e+00  0.000000e+00 -1.000000e+00
    outer loop
      vertex  2.581106e+03 -3.950000e+02  1.610204e+02
      vertex  2.468380e+03 -3.950000e+02  1.610204e+02
      vertex  2.581106e+03 -1.905000e+02  1.610204e+02
    endloop
  endfacet
  facet normal  0.000000e+00  0.000000e+00 -1.000000e+00
    outer loop
      vertex  2.581106e+03 -1.905000e+02  1.610204e+02
      vertex  2.468380e+03 -3.950000e+02  1.610204e+02
      vertex  2.468380e+03 -2.625000e+02  1.610204e+02
    endloop
  endfacet
  facet normal  0.000000e+00  0.000000e+00 -1.000000e+00
    outer loop
      vertex  2.581106e+03 -1.905000e+02  1.610204e+02
      vertex  2.468380e+03 -2.625000e+02  1.610204e+02
      vertex  2.468380e+03 -1.905000e+02  1.610204e+02
    endloop
  endfacet
  facet normal  0.000000e+00  0.000000e+00 -1.000000e+00
    outer loop
      vertex  2.468380e+03 -1.905000e+02  1.610204e+02
      vertex  2.468380e+03 -1.300000e+02  1.610204e+02
      vertex  2.581106e+03 -1.905000e+02  1.610204e+02
    endloop
  endfacet
  facet normal  0.000000e+00  0.000000e+00 -1.000000e+00
    outer loop
      vertex  2.581106e+03 -1.905000e+02  1.610204e+02
      vertex  2.468380e+03 -1.300000e+02  1.610204e+02
      vertex  2.507884e+03 -1.300000e+02  1.610204e+02
    endloop
  endfacet
  facet normal  0.000000e+00  0.000000e+00 -1.000000e+00
    outer loop
      vertex  2.581106e+03 -1.905000e+02  1.610204e+02
      vertex  2.507884e+03 -1.300000e+02  1.610204e+02
      vertex  2.581106e+03  1.400000e+01  1.610204e+02
    endloop
  endfacet
  facet normal  0.000000e+00  0.000000e+00 -1.000000e+00
    outer loop
      vertex  2.581106e+03  1.400000e+01  1.610204e+02
      vertex  2.507884e+03 -1.300000e+02  1.610204e+02
      vertex  2.507884e+03 -5.800000e+01  1.610204e+02
    endloop
  endfacet
  facet normal  0.000000e+00  0.000000e+00 -1.000000e+00
    outer loop
      vertex  2.581106e+03  1.400000e+01  1.610204e+02
      vertex  2.507884e+03 -5.800000e+01  1.610204e+02
      vertex  2.507884e+03  1.400000e+01  1.610204e+02
    endloop
  endfacet
  facet normal  0.000000e+00 -1.000000e+00  0.000000e+00
    outer loop
      vertex  2.468380e+03 -1.300000e+02 -7.564194e+00
      vertex  2.563380e+03 -1.300000e+02 -7.564194e+00
      vertex  2.563380e+03 -1.300000e+02  1.016902e+02
    endloop
  endfacet
  facet normal  -0.000000e+00 -1.000000e+00  0.000000e+00
    outer loop
      vertex  2.468380e+03 -1.300000e+02 -7.564194e+00
      vertex  2.563380e+03 -1.300000e+02  1.016902e+02
      vertex  2.507884e+03 -1.300000e+02  1.016902e+02
    endloop
  endfacet
  facet normal  -0.000000e+00 -9.999999e-01  0.000000e+00
    outer loop
      vertex  2.468380e+03 -1.300000e+02 -7.564194e+00
      vertex  2.507884e+03 -1.300000e+02  1.016902e+02
      vertex  2.507884e+03 -1.300000e+02  1.313553e+02
    endloop
  endfacet
  facet normal  -0.000000e+00 -9.999999e-01  0.000000e+00
    outer loop
      vertex  2.468380e+03 -1.300000e+02 -7.564194e+00
      vertex  2.507884e+03 -1.300000e+02  1.313553e+02
      vertex  2.507884e+03 -1.300000e+02  1.610204e+02
    endloop
  endfacet
  facet normal  -0.000000e+00 -1.000000e+00  0.000000e+00
    outer loop
      vertex  2.468380e+03 -1.300000e+02 -7.564194e+00
      vertex  2.507884e+03 -1.300000e+02  1.610204e+02
      vertex  2.468380e+03 -1.300000e+02  1.610204e+02
    endloop
  endfacet
  facet normal  0.000000e+00 -1.000000e+00  -0.000000e+00
    outer loop
      vertex  2.658380e+03 -1.300000e+02 -7.564194e+00
      vertex  2.658380e+03 -1.300000e+02  1.016902e+02
      vertex  2.563380e+03 -1.300000e+02 -7.564194e+00
    endloop
  endfacet
  facet normal  0.000000e+00 -1.000000e+00  0.000000e+00
    outer loop
      vertex  2.563380e+03 -1.300000e+02 -7.564194e+00
      vertex  2.658380e+03 -1.300000e+02  1.016902e+02
      vertex  2.583132e+03 -1.300000e+02  1.016902e+02
    endloop
  endfacet
  facet normal  -0.000000e+00 -1.000000e+00  0.000000e+00
    outer loop
      vertex  2.563380e+03 -1.300000e+02 -7.564194e+00
      vertex  2.583132e+03 -1.300000e+02  1.016902e+02
      vertex  2.563380e+03 -1.300000e+02  1.016902e+02
    endloop
  endfacet
  facet normal  0.000000e+00 -1.000000e+00  0.000000e+00
    outer loop
      vertex  2.658380e+03 -1.300000e+02 -7.564194e+00
      vertex  2.563380e+03 -1.300000e+02 -7.564194e+00
      vertex  2.658380e+03 -1.300000e+02 -3.722928e+01
    endloop
  endfacet
  facet normal  -0.000000e+00 -9.999999e-01  0.000000e+00
    outer loop
      vertex  2.658380e+03 -1.300000e+02 -3.722928e+01
      vertex  2.563380e+03 -1.300000e+02 -7.564194e+00
      vertex  2.563380e+03 -1.300000e+02 -1.761488e+02
    endloop
  endfacet
  facet normal  0.000000e+00 -1.000000e+00  0.000000e+00
    outer loop
      vertex  2.658380e+03 -1.300000e+02 -3.722928e+01
      vertex  2.563380e+03 -1.300000e+02 -1.761488e+02
      vertex  2.658380e+03 -1.300000e+02 -1.761488e+02
    endloop
  endfacet
  facet normal  0.000000e+00 -9.999999e-01  0.000000e+00
    outer loop
      vertex  2.468380e+03 -1.300000e+02 -1.761488e+02
      vertex  2.563380e+03 -1.300000e+02 -1.761488e+02
      vertex  2.468380e+03 -1.300000e+02 -7.564194e+00
    endloop
  endfacet
  facet normal  0.000000e+00 -9.999999e-01  0.000000e+00
    outer loop
      vertex  2.468380e+03 -1.300000e+02 -7.564194e+00
      vertex  2.563380e+03 -1.300000e+02 -1.761488e+02
      vertex  2.563380e+03 -1.300000e+02 -7.564194e+00
    endloop
  endfacet
  facet normal  1.000000e+00  0.000000e+00  -0.000000e+00
    outer loop
      vertex  2.468380e+03 -1.905000e+02  1.610204e+02
      vertex  2.468380e+03 -1.300000e+02 -7.564194e+00
      vertex  2.468380e+03 -1.300000e+02  1.610204e+02
    endloop
  endfacet
  facet normal  1.000000e+00  0.000000e+00  0.000000e+00
    outer loop
      vertex  2.468380e+03 -1.300000e+02 -7.564194e+00
      vertex  2.468380e+03 -1.905000e+02  1.610204e+02
      vertex  2.468380e+03 -2.625000e+02 -7.564194e+00
    endloop
  endfacet
  facet normal  9.999999e-01  0.000000e+00  0.000000e+00
    outer loop
      vertex  2.468380e+03 -2.625000e+02 -7.564194e+00
      vertex  2.468380e+03 -1.905000e+02  1.610204e+02
      vertex  2.468380e+03 -2.625000e+02  1.610204e+02
    endloop
  endfacet
  facet normal  1.000000e+00  0.000000e+00  0.000000e+00
    outer loop
      vertex  2.468380e+03 -2.625000e+02 -7.564194e+00
      vertex  2.468380e+03 -2.625000e+02 -1.761488e+02
      vertex  2.468380e+03 -1.300000e+02 -7.564194e+00
    endloop
  endfacet
  facet normal  9.999999e-01  0.000000e+00  0.000000e+00
    outer loop
      vertex  2.468380e+03 -1.300000e+02 -7.564194e+00
      vertex  2.468380e+03 -2.625000e+02 -1.761488e+02
      vertex  2.468380e+03 -1.905000e+02 -1.761488e+02
    endloop
  endfacet
  facet normal  1.000000e+00  0.000000e+00  0.000000e+00
    outer loop
      vertex  2.468380e+03 -1.300000e+02 -7.564194e+00
      vertex  2.468380e+03 -1.905000e+02 -1.761488e+02
      vertex  2.468380e+03 -1.300000e+02 -1.761488e+02
    endloop
  endfacet
  facet normal  1.000000e+00  -0.000000e+00  0.000000e+00
    outer loop
      vertex  2.468380e+03 -2.625000e+02 -7.564194e+00
      vertex  2.468380e+03 -3.950000e+02 -7.564194e+00
      vertex  2.468380e+03 -2.625000e+02 -1.761488e+02
    endloop
  endfacet
  facet normal  1.000000e+00  0.000000e+00  0.000000e+00
    outer loop
      vertex  2.468380e+03 -2.625000e+02 -1.761488e+02
      vertex  2.468380e+03 -3.950000e+02 -7.564194e+00
      vertex  2.468380e+03 -3.950000e+02 -1.761488e+02
    endloop
  endfacet
  facet normal  1.000000e+00  0.000000e+00  0.000000e+00
    outer loop
      vertex  2.468380e+03 -3.950000e+02 -7.564194e+00
      vertex  2.468380e+03 -2.625000e+02 -7.564194e+00
      vertex  2.468380e+03 -3.950000e+02  8.975179e+01
    endloop
  endfacet
  facet normal  1.000000e+00  -0.000000e+00  0.000000e+00
    outer loop
      vertex  2.468380e+03 -3.950000e+02  8.975179e+01
      vertex  2.468380e+03 -2.625000e+02 -7.564194e+00
      vertex  2.468380e+03 -2.625000e+02  1.610204e+02
    endloop
  endfacet
  facet normal  1.000000e+00  0.000000e+00  0.000000e+00
    outer loop
      vertex  2.468380e+03 -3.950000e+02  8.975179e+01
      vertex  2.468380e+03 -2.625000e+02  1.610204e+02
      vertex  2.468380e+03 -3.950000e+02  1.610204e+02
    endloop
  endfacet
  facet normal  1.000000e+00  0.000000e+00  0.000000e+00
    outer loop
      vertex  2.507884e+03 -1.300000e+02  1.610204e+02
      vertex  2.507884e+03 -1.300000e+02  1.313553e+02
      vertex  2.507884e+03 -5.800000e+01  1.610204e+02
    endloop
  endfacet
  facet normal  1.000000e+00  0.000000e+00  0.000000e+00
    outer loop
      vertex  2.507884e+03 -5.800000e+01  1.610204e+02
      vertex  2.507884e+03 -1.300000e+02  1.313553e+02
      vertex  2.507884e+03 -5.800000e+01  1.313553e+02
    endloop
  endfacet
  facet normal  1.000000e+00  0.000000e+00  0.000000e+00
    outer loop
      vertex  2.507884e+03 -5.800000e+01  1.610204e+02
      vertex  2.507884e+03 -5.800000e+01  1.313553e+02
      vertex  2.507884e+03  1.400000e+01  1.610204e+02
    endloop
  endfacet
  facet normal  1.000000e+00  0.000000e+00  0.000000e+00
    outer loop
      vertex  2.507884e+03  1.400000e+01  1.610204e+02
      vertex  2.507884e+03 -5.800000e+01  1.313553e+02
      vertex  2.507884e+03  1.400000e+01  1.313553e+02
    endloop
  endfacet
  facet normal  1.000000e+00  0.000000e+00  0.000000e+00
    outer loop
      vertex  2.507884e+03 -1.300000e+02  1.313553e+02
      vertex  2.507884e+03 -1.300000e+02  1.016902e+02
      vertex  2.507884e+03 -5.800000e+01  1.313553e+02
    endloop
  endfacet
  facet normal  1.000000e+00  0.000000e+00  0.000000e+00
    outer loop
      vertex  2.507884e+03 -5.800000e+01  1.313553e+02
      vertex  2.507884e+03 -1.300000e+02  1.016902e+02
      vertex  2.507884e+03 -5.800000e+01  1.016902e+02
    endloop
  endfacet
  facet normal  1.000000e+00  0.000000e+00  0.000000e+00
    outer loop
      vertex  2.507884e+03 -5.800000e+01  1.313553e+02
      vertex  2.507884e+03 -5.800000e+01  1.016902e+02
      vertex  2.507884e+03  1.400000e+01  1.313553e+02
    endloop
  endfacet
  facet normal  1.000000e+00  0.000000e+00  0.000000e+00
    outer loop
      vertex  2.507884e+03  1.400000e+01  1.313553e+02
      vertex  2.507884e+03 -5.800000e+01  1.016902e+02
      vertex  2.507884e+03  1.400000e+01  1.016902e+02
    endloop
  endfacet
  facet normal  0.000000e+00  0.000000e+00  9.999999e-01
    outer loop
      vertex  2.563380e+03 -1.300000e+02  1.016902e+02
      vertex  2.507884e+03 -5.800000e+01  1.016902e+02
      vertex  2.507884e+03 -1.300000e+02  1.016902e+02
    endloop
  endfacet
  facet normal  0.000000e+00  -0.000000e+00  1.000000e+00
    outer loop
      vertex  2.507884e+03 -5.800000e+01  1.016902e+02
      vertex  2.563380e+03 -1.300000e+02  1.016902e+02
      vertex  2.583132e+03 -5.800000e+01  1.016902e+02
    endloop
  endfacet
  facet normal  0.000000e+00  0.000000e+00  1.000000e+00
    outer loop
      vertex  2.583132e+03 -5.800000e+01  1.016902e+02
      vertex  2.563380e+03 -1.300000e+02  1.016902e+02
      vertex  2.583132e+03 -1.300000e+02  1.016902e+02
    endloop
  endfacet
  facet normal  0.000000e+00  0.000000e+00  1.000000e+00
    outer loop
      vertex  2.507884e+03 -5.800000e+01  1.016902e+02
      vertex  2.583132e+03 -5.800000e+01  1.016902e+02
      vertex  2.507884e+03  1.400000e+01  1.016902e+02
    endloop
  endfacet
  facet normal  -0.000000e+00  0.000000e+00  1.000000e+00
    outer loop
      vertex  2.507884e+03  1.400000e+01  1.016902e+02
      vertex  2.583132e+03 -5.800000e+01  1.016902e+02
      vertex  2.583132e+03  1.400000e+01  1.016902e+02
    endloop
  endfacet
  facet normal  0.000000e+00  0.000000e+00  1.000000e+00
    outer loop
      vertex  2.583132e+03 -1.300000e+02  1.016902e+02
      vertex  2.658380e+03 -1.300000e+02  1.016902e+02
      vertex  2.583132e+03 -5.800000e+01  1.016902e+02
    endloop
  endfacet
  facet normal  -0.000000e+00  0.000000e+00  1.000000e+00
    outer loop
      vertex  2.583132e+03 -5.800000e+01  1.016902e+02
      vertex  2.658380e+03 -1.300000e+02  1.016902e+02
      vertex  2.658380e+03 -5.800000e+01  1.016902e+02
    endloop
  endfacet
  facet normal  0.000000e+00  0.000000e+00  1.000000e+00
    outer loop
      vertex  2.583132e+03 -5.800000e+01  1.016902e+02
      vertex  2.658380e+03 -5.800000e+01  1.016902e+02
      vertex  2.583132e+03  1.400000e+01  1.016902e+02
    endloop
  endfacet
  facet normal  -0.000000e+00  0.000000e+00  1.000000e+00
    outer loop
      vertex  2.583132e+03  1.400000e+01  1.016902e+02
      vertex  2.658380e+03 -5.800000e+01  1.016902e+02
      vertex  2.658380e+03  1.400000e+01  1.016902e+02
    endloop
  endfacet
  facet normal  1.000000e+00  0.000000e+00  0.000000e+00
    outer loop
      vertex  2.658380e+03 -1.300000e+02 -7.564194e+00
      vertex  2.658380e+03 -5.800000e+01  1.016902e+02
      vertex  2.658380e+03 -1.300000e+02  1.016902e+02
    endloop
  endfacet
  facet normal  1.000000e+00  -0.000000e+00  0.000000e+00
    outer loop
      vertex  2.658380e+03 -5.800000e+01  1.016902e+02
      vertex  2.658380e+03 -1.300000e+02 -7.564194e+00
      vertex  2.658380e+03 -5.800000e+01 -3.722928e+01
    endloop
  endfacet
  facet normal  1.000000e+00  0.000000e+00  0.000000e+00
    outer loop
      vertex  2.658380e+03 -5.800000e+01 -3.722928e+01
      vertex  2.658380e+03 -1.300000e+02 -7.564194e+00
      vertex  2.658380e+03 -1.300000e+02 -3.722928e+01
    endloop
  endfacet
  facet normal  1.000000e+00  0.000000e+00  0.000000e+00
    outer loop
      vertex  2.658380e+03 -5.800000e+01 -3.722928e+01
      vertex  2.658380e+03  1.400000e+01 -3.722928e+01
      vertex  2.658380e+03 -5.800000e+01  1.016902e+02
    endloop
  endfacet
  facet normal  1.000000e+00  0.000000e+00  0.000000e+00
    outer loop
      vertex  2.658380e+03 -5.800000e+01  1.016902e+02
      vertex  2.658380e+03  1.400000e+01 -3.722928e+01
      vertex  2.658380e+03  1.400000e+01  8.975179e+01
    endloop
  endfacet
  facet normal  1.000000e+00  0.000000e+00  -0.000000e+00
    outer loop
      vertex  2.658380e+03 -5.800000e+01  1.016902e+02
      vertex  2.658380e+03  1.400000e+01  8.975179e+01
      vertex  2.658380e+03  1.400000e+01  1.016902e+02
    endloop
  endfacet
  facet normal  1.000000e+00  0.000000e+00  0.000000e+00
    outer loop
      vertex  2.658380e+03 -1.300000e+02 -3.722928e+01
      vertex  2.658380e+03 -1.300000e+02 -1.761488e+02
      vertex  2.658380e+03 -5.800000e+01 -3.722928e+01
    endloop
  endfacet
  facet normal  1.000000e+00  0.000000e+00  0.000000e+00
    outer loop
      vertex  2.658380e+03 -5.800000e+01 -3.722928e+01
      vertex  2.658380e+03 -1.300000e+02 -1.761488e+02
      vertex  2.658380e+03 -5.800000e+01 -1.761488e+02
    endloop
  endfacet
  facet normal  1.000000e+00  0.000000e+00  0.000000e+00
    outer loop
      vertex  2.658380e+03 -5.800000e+01 -3.722928e+01
      vertex  2.658380e+03 -5.800000e+01 -1.761488e+02
      vertex  2.658380e+03  1.400000e+01 -3.722928e+01
    endloop
  endfacet
  facet normal  1.000000e+00  0.000000e+00  0.000000e+00
    outer loop
      vertex  2.658380e+03  1.400000e+01 -3.722928e+01
      vertex  2.658380e+03 -5.800000e+01 -1.761488e+02
      vertex  2.658380e+03  1.400000e+01 -1.761488e+02
    endloop
  endfacet
  facet normal  0.000000e+00  0.000000e+00 -1.000000e+00
    outer loop
      vertex  2.658380e+03 -5.800000e+01 -1.761488e+02
      vertex  2.563380e+03 -1.300000e+02 -1.761488e+02
      vertex  2.468380e+03 -1.300000e+02 -1.761488e+02
    endloop
  endfacet
  facet normal  0.000000e+00  0.000000e+00 -1.000000e+00
    outer loop
      vertex  2.468380e+03 -2.625000e+02 -1.761488e+02
      vertex  2.403694e+03 -1.905000e+02 -1.761488e+02
      vertex  2.468380e+03 -1.905000e+02 -1.761488e+02
    endloop
  endfacet
  facet normal  -0.000000e+00  0.000000e+00 -1.000000e+00
    outer loop
      vertex  2.403694e+03 -1.905000e+02 -1.761488e+02
      vertex  2.468380e+03 -2.625000e+02 -1.761488e+02
      vertex  2.421420e+03 -3.950000e+02 -1.761488e+02
    endloop
  endfacet
  facet normal  0.000000e+00  -0.000000e+00 -1.000000e+00
    outer loop
      vertex  2.421420e+03 -3.950000e+02 -1.761488e+02
      vertex  2.468380e+03 -2.625000e+02 -1.761488e+02
      vertex  2.468380e+03 -3.950000e+02 -1.761488e+02
    endloop
  endfacet
  facet normal  0.000000e+00  0.000000e+00 -1.000000e+00
    outer loop
      vertex  2.658380e+03 -5.800000e+01 -1.761488e+02
      vertex  2.421420e+03  1.400000e+01 -1.761488e+02
      vertex  2.658380e+03  1.400000e+01 -1.761488e+02
    endloop
  endfacet
  facet normal  -0.000000e+00  0.000000e+00 -9.999999e-01
    outer loop
      vertex  2.421420e+03  1.400000e+01 -1.761488e+02
      vertex  2.658380e+03 -5.800000e+01 -1.761488e+02
      vertex  2.468380e+03 -1.300000e+02 -1.761488e+02
    endloop
  endfacet
  facet normal  0.000000e+00  -0.000000e+00 -1.000000e+00
    outer loop
      vertex  2.563380e+03 -1.300000e+02 -1.761488e+02
      vertex  2.658380e+03 -5.800000e+01 -1.761488e+02
      vertex  2.658380e+03 -1.300000e+02 -1.761488e+02
    endloop
  endfacet
  facet normal  0.000000e+00  0.000000e+00 -1.000000e+00
    outer loop
      vertex  2.403694e+03 -1.905000e+02 -1.761488e+02
      vertex  2.421420e+03 -3.950000e+02 -1.761488e+02
      vertex  2.403694e+03 -3.950000e+02 -1.761488e+02
    endloop
  endfacet
  facet normal  0.000000e+00  0.000000e+00 -1.000000e+00
    outer loop
      vertex  2.149008e+03 -3.950000e+02 -1.761488e+02
      vertex  2.149008e+03 -1.905000e+02 -1.761488e+02
      vertex  2.403694e+03 -3.950000e+02 -1.761488e+02
    endloop
  endfacet
  facet normal  0.000000e+00  0.000000e+00 -1.000000e+00
    outer loop
      vertex  2.403694e+03 -3.950000e+02 -1.761488e+02
      vertex  2.149008e+03 -1.905000e+02 -1.761488e+02
      vertex  2.403694e+03 -1.905000e+02 -1.761488e+02
    endloop
  endfacet
  facet normal  -0.000000e+00  -0.000000e+00 -1.000000e+00
    outer loop
      vertex  2.421420e+03  1.400000e+01 -1.761488e+02
      vertex  2.468380e+03 -1.300000e+02 -1.761488e+02
      vertex  2.468380e+03 -1.905000e+02 -1.761488e+02
    endloop
  endfacet
  facet normal  0.000000e+00  0.000000e+00 -1.000000e+00
    outer loop
      vertex  2.403694e+03 -1.905000e+02 -1.761488e+02
      vertex  2.403694e+03  1.400000e+01 -1.761488e+02
      vertex  2.468380e+03 -1.905000e+02 -1.761488e+02
    endloop
  endfacet
  facet normal  0.000000e+00  0.000000e+00 -1.000000e+00
    outer loop
      vertex  2.468380e+03 -1.905000e+02 -1.761488e+02
      vertex  2.403694e+03  1.400000e+01 -1.761488e+02
      vertex  2.421420e+03  1.400000e+01 -1.761488e+02
    endloop
  endfacet
  facet normal  0.000000e+00  0.000000e+00 -1.000000e+00
    outer loop
      vertex  2.149008e+03 -1.905000e+02 -1.761488e+02
      vertex  2.149008e+03  1.400000e+01 -1.761488e+02
      vertex  2.403694e+03 -1.905000e+02 -1.761488e+02
    endloop
  endfacet
  facet normal  0.000000e+00  0.000000e+00 -1.000000e+00
    outer loop
      vertex  2.403694e+03 -1.905000e+02 -1.761488e+02
      vertex  2.149008e+03  1.400000e+01 -1.761488e+02
      vertex  2.403694e+03  1.400000e+01 -1.761488e+02
    endloop
  endfacet
  facet normal  0.000000e+00 -1.000000e+00  0.000000e+00
    outer loop
      vertex  2.468380e+03 -3.950000e+02  1.610204e+02
      vertex  2.581106e+03 -3.950000e+02  1.610204e+02
      vertex  2.693833e+03 -3.950000e+02  2.583364e+02
    endloop
  endfacet
  facet normal  0.000000e+00 -1.000000e+00  0.000000e+00
    outer loop
      vertex  2.468380e+03 -3.950000e+02  8.975179e+01
      vertex  2.421420e+03 -3.950000e+02  8.975179e+01
      vertex  2.468380e+03 -3.950000e+02 -7.564194e+00
    endloop
  endfacet
  facet normal  -0.000000e+00 -1.000000e+00  0.000000e+00
    outer loop
      vertex  2.421420e+03 -3.950000e+02 -1.761488e+02
      vertex  2.468380e+03 -3.950000e+02 -7.564194e+00
      vertex  2.421420e+03 -3.950000e+02  8.975179e+01
    endloop
  endfacet
  facet normal  0.000000e+00 -1.000000e+00  -0.000000e+00
    outer loop
      vertex  2.468380e+03 -3.950000e+02 -1.761488e+02
      vertex  2.468380e+03 -3.950000e+02 -7.564194e+00
      vertex  2.421420e+03 -3.950000e+02 -1.761488e+02
    endloop
  endfacet
  facet normal  0.000000e+00 -1.000000e+00  -0.000000e+00
    outer loop
      vertex  2.421420e+03 -3.950000e+02 -1.761488e+02
      vertex  2.421420e+03 -3.950000e+02  8.975179e+01
      vertex  2.403694e+03 -3.950000e+02 -1.761488e+02
    endloop
  endfacet
  facet normal  0.000000e+00 -1.000000e+00  0.000000e+00
    outer loop
      vertex  2.149008e+03 -3.950000e+02  8.975179e+01
      vertex  2.403694e+03 -3.950000e+02 -1.761488e+02
      vertex  2.421420e+03 -3.950000e+02  8.975179e+01
    endloop
  endfacet
  facet normal  0.000000e+00 -1.000000e+00  0.000000e+00
    outer loop
      vertex  2.149008e+03 -3.950000e+02 -1.761488e+02
      vertex  2.403694e+03 -3.950000e+02 -1.761488e+02
      vertex  2.149008e+03 -3.950000e+02  8.975179e+01
    endloop
  endfacet
  facet normal  0.000000e+00 -1.000000e+00  -0.000000e+00
    outer loop
      vertex  2.693833e+03 -3.950000e+02  1.610204e+02
      vertex  2.693833e+03 -3.950000e+02  2.583364e+02
      vertex  2.581106e+03 -3.950000e+02  1.610204e+02
    endloop
  endfacet
  facet normal  0.000000e+00 -1.000000e+00  0.000000e+00
    outer loop
      vertex  2.149008e+03 -3.950000e+02  3.556523e+02
      vertex  2.149008e+03 -3.950000e+02  8.975179e+01
      vertex  2.421420e+03 -3.950000e+02  3.556523e+02
    endloop
  endfacet
  facet normal  0.000000e+00 -1.000000e+00  -0.000000e+00
    outer loop
      vertex  2.421420e+03 -3.950000e+02  3.556523e+02
      vertex  2.149008e+03 -3.950000e+02  8.975179e+01
      vertex  2.421420e+03 -3.950000e+02  8.975179e+01
    endloop
  endfacet
  facet normal  0.000000e+00 -9.999999e-01  0.000000e+00
    outer loop
      vertex  2.693833e+03 -3.950000e+02  3.556523e+02
      vertex  2.421420e+03 -3.950000e+02  3.556523e+02
      vertex  2.693833e+03 -3.950000e+02  2.583364e+02
    endloop
  endfacet
  facet normal  -0.000000e+00 -1.000000e+00  0.000000e+00
    outer loop
      vertex  2.693833e+03 -3.950000e+02  2.583364e+02
      vertex  2.421420e+03 -3.950000e+02  3.556523e+02
      vertex  2.468380e+03 -3.950000e+02  1.610204e+02
    endloop
  endfacet
  facet normal  0.000000e+00 -1.000000e+00  0.000000e+00
    outer loop
      vertex  2.421420e+03 -3.950000e+02  3.556523e+02
      vertex  2.421420e+03 -3.950000e+02  8.975179e+01
      vertex  2.468380e+03 -3.950000e+02  1.610204e+02
    endloop
  endfacet
  facet normal  0.000000e+00 -1.000000e+00  -0.000000e+00
    outer loop
      vertex  2.468380e+03 -3.950000e+02  1.610204e+02
      vertex  2.421420e+03 -3.950000e+02  8.975179e+01
      vertex  2.468380e+03 -3.950000e+02  8.975179e+01
    endloop
  endfacet
  facet normal  0.000000e+00  1.000000e+00  -0.000000e+00
    outer loop
      vertex  2.693833e+03  1.400000e+01  2.583364e+02
      vertex  2.581106e+03  1.400000e+01  1.610204e+02
      vertex  2.507884e+03  1.400000e+01  1.610204e+02
    endloop
  endfacet
  facet normal  0.000000e+00  1.000000e+00  0.000000e+00
    outer loop
      vertex  2.507884e+03  1.400000e+01  1.313553e+02
      vertex  2.421420e+03  1.400000e+01  3.556523e+02
      vertex  2.507884e+03  1.400000e+01  1.610204e+02
    endloop
  endfacet
  facet normal  0.000000e+00  1.000000e+00  0.000000e+00
    outer loop
      vertex  2.421420e+03  1.400000e+01  3.556523e+02
      vertex  2.507884e+03  1.400000e+01  1.313553e+02
      vertex  2.421420e+03  1.400000e+01  8.975179e+01
    endloop
  endfacet
  facet normal  0.000000e+00  1.000000e+00  0.000000e+00
    outer loop
      vertex  2.421420e+03  1.400000e+01  8.975179e+01
      vertex  2.507884e+03  1.400000e+01  1.313553e+02
      vertex  2.507884e+03  1.400000e+01  1.016902e+02
    endloop
  endfacet
  facet normal  0.000000e+00  1.000000e+00  0.000000e+00
    outer loop
      vertex  2.583132e+03  1.400000e+01  1.016902e+02
      vertex  2.421420e+03  1.400000e+01  8.975179e+01
      vertex  2.507884e+03  1.400000e+01  1.016902e+02
    endloop
  endfacet
  facet normal  0.000000e+00  1.000000e+00  0.000000e+00
    outer loop
      vertex  2.421420e+03  1.400000e+01  8.975179e+01
      vertex  2.583132e+03  1.400000e+01  1.016902e+02
      vertex  2.658380e+03  1.400000e+01  8.975179e+01
    endloop
  endfacet
  facet normal  -0.000000e+00  1.000000e+00  0.000000e+00
    outer loop
      vertex  2.658380e+03  1.400000e+01  8.975179e+01
      vertex  2.583132e+03  1.400000e+01  1.016902e+02
      vertex  2.658380e+03  1.400000e+01  1.016902e+02
    endloop
  endfacet
  facet normal  -0.000000e+00  1.000000e+00  0.000000e+00
    outer loop
      vertex  2.658380e+03  1.400000e+01 -3.722928e+01
      vertex  2.421420e+03  1.400000e+01  8.975179e+01
      vertex  2.658380e+03  1.400000e+01  8.975179e+01
    endloop
  endfacet
  facet normal  0.000000e+00  1.000000e+00  0.000000e+00
    outer loop
      vertex  2.421420e+03  1.400000e+01  8.975179e+01
      vertex  2.658380e+03  1.400000e+01 -3.722928e+01
      vertex  2.421420e+03  1.400000e+01 -1.761488e+02
    endloop
  endfacet
  facet normal  0.000000e+00  1.000000e+00  0.000000e+00
    outer loop
      vertex  2.421420e+03  1.400000e+01 -1.761488e+02
      vertex  2.658380e+03  1.400000e+01 -3.722928e+01
      vertex  2.658380e+03  1.400000e+01 -1.761488e+02
    endloop
  endfacet
  facet normal  0.000000e+00  1.000000e+00  0.000000e+00
    outer loop
      vertex  2.403694e+03  1.400000e+01 -1.761488e+02
      vertex  2.421420e+03  1.400000e+01  8.975179e+01
      vertex  2.421420e+03  1.400000e+01 -1.761488e+02
    endloop
  endfacet
  facet normal  0.000000e+00  1.000000e+00  -0.000000e+00
    outer loop
      vertex  2.421420e+03  1.400000e+01  8.975179e+01
      vertex  2.403694e+03  1.400000e+01 -1.761488e+02
      vertex  2.149008e+03  1.400000e+01  8.975179e+01
    endloop
  endfacet
  facet normal  0.000000e+00  1.000000e+00  0.000000e+00
    outer loop
      vertex  2.149008e+03  1.400000e+01  8.975179e+01
      vertex  2.403694e+03  1.400000e+01 -1.761488e+02
      vertex  2.149008e+03  1.400000e+01 -1.761488e+02
    endloop
  endfacet
  facet normal  0.000000e+00  1.000000e+00  0.000000e+00
    outer loop
      vertex  2.581106e+03  1.400000e+01  1.610204e+02
      vertex  2.693833e+03  1.400000e+01  2.583364e+02
      vertex  2.693833e+03  1.400000e+01  1.610204e+02
    endloop
  endfacet
  facet normal  0.000000e+00  1.000000e+00  0.000000e+00
    outer loop
      vertex  2.149008e+03  1.400000e+01  3.556523e+02
      vertex  2.421420e+03  1.400000e+01  3.556523e+02
      vertex  2.149008e+03  1.400000e+01  8.975179e+01
    endloop
  endfacet
  facet normal  0.000000e+00  1.000000e+00  0.000000e+00
    outer loop
      vertex  2.149008e+03  1.400000e+01  8.975179e+01
      vertex  2.421420e+03  1.400000e+01  3.556523e+02
      vertex  2.421420e+03  1.400000e+01  8.975179e+01
    endloop
  endfacet
  facet normal  0.000000e+00  9.999999e-01  -0.000000e+00
    outer loop
      vertex  2.693833e+03  1.400000e+01  3.556523e+02
      vertex  2.693833e+03  1.400000e+01  2.583364e+02
      vertex  2.421420e+03  1.400000e+01  3.556523e+02
    endloop
  endfacet
  facet normal  0.000000e+00  9.999999e-01  0.000000e+00
    outer loop
      vertex  2.421420e+03  1.400000e+01  3.556523e+02
      vertex  2.693833e+03  1.400000e+01  2.583364e+02
      vertex  2.507884e+03  1.400000e+01  1.610204e+02
    endloop
  endfacet
  facet normal  1.000000e+00  0.000000e+00  0.000000e+00
    outer loop
      vertex  2.693833e+03 -3.950000e+02  3.556523e+02
      vertex  2.693833e+03 -3.950000e+02  2.583364e+02
      vertex  2.693833e+03 -1.905000e+02  3.556523e+02
    endloop
  endfacet
  facet normal  1.000000e+00  0.000000e+00  0.000000e+00
    outer loop
      vertex  2.693833e+03 -1.905000e+02  3.556523e+02
      vertex  2.693833e+03 -3.950000e+02  2.583364e+02
      vertex  2.693833e+03 -1.905000e+02  2.583364e+02
    endloop
  endfacet
  facet normal  1.000000e+00  0.000000e+00  0.000000e+00
    outer loop
      vertex  2.693833e+03 -1.905000e+02  3.556523e+02
      vertex  2.693833e+03 -1.905000e+02  2.583364e+02
      vertex  2.693833e+03  1.400000e+01  3.556523e+02
    endloop
  endfacet
  facet normal  1.000000e+00  0.000000e+00  0.000000e+00
    outer loop
      vertex  2.693833e+03  1.400000e+01  3.556523e+02
      vertex  2.693833e+03 -1.905000e+02  2.583364e+02
      vertex  2.693833e+03  1.400000e+01  2.583364e+02
    endloop
  endfacet
  facet normal  1.000000e+00  0.000000e+00  0.000000e+00
    outer loop
      vertex  2.693833e+03 -3.950000e+02  2.583364e+02
      vertex  2.693833e+03 -3.950000e+02  1.610204e+02
      vertex  2.693833e+03 -1.905000e+02  2.583364e+02
    endloop
  endfacet
  facet normal  1.000000e+00  0.000000e+00  0.000000e+00
    outer loop
      vertex  2.693833e+03 -1.905000e+02  2.583364e+02
      vertex  2.693833e+03 -3.950000e+02  1.610204e+02
      vertex  2.693833e+03 -1.905000e+02  1.610204e+02
    endloop
  endfacet
  facet normal  1.000000e+00  0.000000e+00  0.000000e+00
    outer loop
      vertex  2.693833e+03 -1.905000e+02  2.583364e+02
      vertex  2.693833e+03 -1.905000e+02  1.610204e+02
      vertex  2.693833e+03  1.400000e+01  2.583364e+02
    endloop
  endfacet
  facet normal  1.000000e+00  0.000000e+00  0.000000e+00
    outer loop
      vertex  2.693833e+03  1.400000e+01  2.583364e+02
      vertex  2.693833e+03 -1.905000e+02  1.610204e+02
      vertex  2.693833e+03  1.400000e+01  1.610204e+02
    endloop
  endfacet
  facet normal  0.000000e+00  0.000000e+00  1.000000e+00
    outer loop
      vertex  2.149008e+03 -1.905000e+02  3.556523e+02
      vertex  2.149008e+03 -3.950000e+02  3.556523e+02
      vertex  2.421420e+03 -1.905000e+02  3.556523e+02
    endloop
  endfacet
  facet normal  0.000000e+00  0.000000e+00  1.000000e+00
    outer loop
      vertex  2.421420e+03 -1.905000e+02  3.556523e+02
      vertex  2.149008e+03 -3.950000e+02  3.556523e+02
      vertex  2.421420e+03 -3.950000e+02  3.556523e+02
    endloop
  endfacet
  facet normal  0.000000e+00  0.000000e+00  1.000000e+00
    outer loop
      vertex  2.421420e+03 -1.905000e+02  3.556523e+02
      vertex  2.421420e+03 -3.950000e+02  3.556523e+02
      vertex  2.693833e+03 -1.905000e+02  3.556523e+02
    endloop
  endfacet
  facet normal  0.000000e+00  0.000000e+00  1.000000e+00
    outer loop
      vertex  2.693833e+03 -1.905000e+02  3.556523e+02
      vertex  2.421420e+03 -3.950000e+02  3.556523e+02
      vertex  2.693833e+03 -3.950000e+02  3.556523e+02
    endloop
  endfacet
  facet normal  0.000000e+00  0.000000e+00  1.000000e+00
    outer loop
      vertex  2.149008e+03  1.400000e+01  3.556523e+02
      vertex  2.149008e+03 -1.905000e+02  3.556523e+02
      vertex  2.421420e+03  1.400000e+01  3.556523e+02
    endloop
  endfacet
  facet normal  0.000000e+00  0.000000e+00  1.000000e+00
    outer loop
      vertex  2.421420e+03  1.400000e+01  3.556523e+02
      vertex  2.149008e+03 -1.905000e+02  3.556523e+02
      vertex  2.421420e+03 -1.905000e+02  3.556523e+02
    endloop
  endfacet
  facet normal  0.000000e+00  0.000000e+00  1.000000e+00
    outer loop
      vertex  2.421420e+03  1.400000e+01  3.556523e+02
      vertex  2.421420e+03 -1.905000e+02  3.556523e+02
      vertex  2.693833e+03  1.400000e+01  3.556523e+02
    endloop
  endfacet
  facet normal  0.000000e+00  0.000000e+00  1.000000e+00
    outer loop
      vertex  2.693833e+03  1.400000e+01  3.556523e+02
      vertex  2.421420e+03 -1.905000e+02  3.556523e+02
      vertex  2.693833e+03 -1.905000e+02  3.556523e+02
    endloop
  endfacet
  facet normal -1.000000e+00  0.000000e+00  0.000000e+00
    outer loop
      vertex  2.149008e+03 -1.905000e+02 -1.761488e+02
      vertex  2.149008e+03 -3.950000e+02 -1.761488e+02
      vertex  2.149008e+03 -1.905000e+02  8.975179e+01
    endloop
  endfacet
  facet normal -1.000000e+00  -0.000000e+00  0.000000e+00
    outer loop
      vertex  2.149008e+03 -1.905000e+02  8.975179e+01
      vertex  2.149008e+03 -3.950000e+02 -1.761488e+02
      vertex  2.149008e+03 -3.950000e+02  8.975179e+01
    endloop
  endfacet
  facet normal -1.000000e+00  0.000000e+00  0.000000e+00
    outer loop
      vertex  2.149008e+03 -1.905000e+02  8.975179e+01
      vertex  2.149008e+03 -3.950000e+02  8.975179e+01
      vertex  2.149008e+03 -1.905000e+02  3.556523e+02
    endloop
  endfacet
  facet normal -1.000000e+00  -0.000000e+00  0.000000e+00
    outer loop
      vertex  2.149008e+03 -1.905000e+02  3.556523e+02
      vertex  2.149008e+03 -3.950000e+02  8.975179e+01
      vertex  2.149008e+03 -3.950000e+02  3.556523e+02
    endloop
  endfacet
  facet normal -1.000000e+00  0.000000e+00  0.000000e+00
    outer loop
      vertex  2.149008e+03  1.400000e+01 -1.761488e+02
      vertex  2.149008e+03 -1.905000e+02 -1.761488e+02
      vertex  2.149008e+03  1.400000e+01  8.975179e+01
    endloop
  endfacet
  facet normal -1.000000e+00  -0.000000e+00  0.000000e+00
    outer loop
      vertex  2.149008e+03  1.400000e+01  8.975179e+01
      vertex  2.149008e+03 -1.905000e+02 -1.761488e+02
      vertex  2.149008e+03 -1.905000e+02  8.975179e+01
    endloop
  endfacet
  facet normal -1.000000e+00  0.000000e+00  0.000000e+00
    outer loop
      vertex  2.149008e+03  1.400000e+01  8.975179e+01
      vertex  2.149008e+03 -1.905000e+02  8.975179e+01
      vertex  2.149008e+03  1.400000e+01  3.556523e+02
    endloop
  endfacet
  facet normal -1.000000e+00  -0.000000e+00  0.000000e+00
    outer loop
      vertex  2.149008e+03  1.400000e+01  3.556523e+02
      vertex  2.149008e+03 -1.905000e+02  8.975179e+01
      vertex  2.149008e+03 -1.905000e+02  3.556523e+02
    endloop
  endfacet
endsolid CATIA STL
