solid CATIA STL
  facet normal  1.000000e+00  -0.000000e+00  0.000000e+00
    outer loop
      vertex  2.470000e+02  1.500000e+02  2.110000e+02
      vertex  2.470000e+02 -9.450000e+01  2.110000e+02
      vertex  2.470000e+02  1.500000e+02  2.750000e+01
    endloop
  endfacet
  facet normal  1.000000e+00  0.000000e+00  0.000000e+00
    outer loop
      vertex  2.470000e+02  1.500000e+02  2.750000e+01
      vertex  2.470000e+02 -9.450000e+01  2.110000e+02
      vertex  2.470000e+02 -9.450000e+01  2.750000e+01
    endloop
  endfacet
  facet normal  1.000000e+00  -0.000000e+00  0.000000e+00
    outer loop
      vertex  2.470000e+02  1.500000e+02  2.750000e+01
      vertex  2.470000e+02 -9.450000e+01  2.750000e+01
      vertex  2.470000e+02  1.500000e+02 -1.560000e+02
    endloop
  endfacet
  facet normal  1.000000e+00  0.000000e+00  0.000000e+00
    outer loop
      vertex  2.470000e+02  1.500000e+02 -1.560000e+02
      vertex  2.470000e+02 -9.450000e+01  2.750000e+01
      vertex  2.470000e+02 -9.450000e+01 -1.560000e+02
    endloop
  endfacet
  facet normal  1.000000e+00  -0.000000e+00  0.000000e+00
    outer loop
      vertex  2.470000e+02 -9.450000e+01  2.110000e+02
      vertex  2.470000e+02 -3.390000e+02  2.110000e+02
      vertex  2.470000e+02 -9.450000e+01  2.750000e+01
    endloop
  endfacet
  facet normal  1.000000e+00  0.000000e+00  0.000000e+00
    outer loop
      vertex  2.470000e+02 -9.450000e+01  2.750000e+01
      vertex  2.470000e+02 -3.390000e+02  2.110000e+02
      vertex  2.470000e+02 -3.390000e+02  2.750000e+01
    endloop
  endfacet
  facet normal  1.000000e+00  -0.000000e+00  0.000000e+00
    outer loop
      vertex  2.470000e+02 -9.450000e+01  2.750000e+01
      vertex  2.470000e+02 -3.390000e+02  2.750000e+01
      vertex  2.470000e+02 -9.450000e+01 -1.560000e+02
    endloop
  endfacet
  facet normal  1.000000e+00  0.000000e+00  0.000000e+00
    outer loop
      vertex  2.470000e+02 -9.450000e+01 -1.560000e+02
      vertex  2.470000e+02 -3.390000e+02  2.750000e+01
      vertex  2.470000e+02 -3.390000e+02 -1.560000e+02
    endloop
  endfacet
  facet normal -1.000000e+00  0.000000e+00  0.000000e+00
    outer loop
      vertex  3.500000e+01  1.500000e+02  2.110000e+02
      vertex  3.500000e+01  1.500000e+02  2.750000e+01
      vertex  3.500000e+01 -9.450000e+01  2.110000e+02
    endloop
  endfacet
  facet normal -1.000000e+00  0.000000e+00  0.000000e+00
    outer loop
      vertex  3.500000e+01 -9.450000e+01  2.110000e+02
      vertex  3.500000e+01  1.500000e+02  2.750000e+01
      vertex  3.500000e+01 -9.450000e+01  2.750000e+01
    endloop
  endfacet
  facet normal -1.000000e+00  0.000000e+00  0.000000e+00
    outer loop
      vertex  3.500000e+01  1.500000e+02  2.750000e+01
      vertex  3.500000e+01  1.500000e+02 -1.560000e+02
      vertex  3.500000e+01 -9.450000e+01  2.750000e+01
    endloop
  endfacet
  facet normal -1.000000e+00  0.000000e+00  0.000000e+00
    outer loop
      vertex  3.500000e+01 -9.450000e+01  2.750000e+01
      vertex  3.500000e+01  1.500000e+02 -1.560000e+02
      vertex  3.500000e+01 -9.450000e+01 -1.560000e+02
    endloop
  endfacet
  facet normal -1.000000e+00  0.000000e+00  0.000000e+00
    outer loop
      vertex  3.500000e+01 -9.450000e+01  2.110000e+02
      vertex  3.500000e+01 -9.450000e+01  2.750000e+01
      vertex  3.500000e+01 -3.390000e+02  2.110000e+02
    endloop
  endfacet
  facet normal -1.000000e+00  0.000000e+00  0.000000e+00
    outer loop
      vertex  3.500000e+01 -3.390000e+02  2.110000e+02
      vertex  3.500000e+01 -9.450000e+01  2.750000e+01
      vertex  3.500000e+01 -3.390000e+02  2.750000e+01
    endloop
  endfacet
  facet normal -1.000000e+00  0.000000e+00  0.000000e+00
    outer loop
      vertex  3.500000e+01 -9.450000e+01  2.750000e+01
      vertex  3.500000e+01 -9.450000e+01 -1.560000e+02
      vertex  3.500000e+01 -3.390000e+02  2.750000e+01
    endloop
  endfacet
  facet normal -1.000000e+00  0.000000e+00  0.000000e+00
    outer loop
      vertex  3.500000e+01 -3.390000e+02  2.750000e+01
      vertex  3.500000e+01 -9.450000e+01 -1.560000e+02
      vertex  3.500000e+01 -3.390000e+02 -1.560000e+02
    endloop
  endfacet
  facet normal  0.000000e+00  0.000000e+00  1.000000e+00
    outer loop
      vertex  1.410000e+02  1.500000e+02  2.110000e+02
      vertex  1.410000e+02 -9.450000e+01  2.110000e+02
      vertex  2.470000e+02  1.500000e+02  2.110000e+02
    endloop
  endfacet
  facet normal  0.000000e+00  0.000000e+00  1.000000e+00
    outer loop
      vertex  2.470000e+02  1.500000e+02  2.110000e+02
      vertex  1.410000e+02 -9.450000e+01  2.110000e+02
      vertex  2.470000e+02 -9.450000e+01  2.110000e+02
    endloop
  endfacet
  facet normal  0.000000e+00  0.000000e+00  1.000000e+00
    outer loop
      vertex  1.410000e+02 -9.450000e+01  2.110000e+02
      vertex  1.410000e+02 -3.390000e+02  2.110000e+02
      vertex  2.470000e+02 -9.450000e+01  2.110000e+02
    endloop
  endfacet
  facet normal  0.000000e+00  0.000000e+00  1.000000e+00
    outer loop
      vertex  2.470000e+02 -9.450000e+01  2.110000e+02
      vertex  1.410000e+02 -3.390000e+02  2.110000e+02
      vertex  2.470000e+02 -3.390000e+02  2.110000e+02
    endloop
  endfacet
  facet normal  0.000000e+00  0.000000e+00  1.000000e+00
    outer loop
      vertex  3.500000e+01  1.500000e+02  2.110000e+02
      vertex  3.500000e+01 -9.450000e+01  2.110000e+02
      vertex  1.410000e+02  1.500000e+02  2.110000e+02
    endloop
  endfacet
  facet normal  0.000000e+00  0.000000e+00  1.000000e+00
    outer loop
      vertex  1.410000e+02  1.500000e+02  2.110000e+02
      vertex  3.500000e+01 -9.450000e+01  2.110000e+02
      vertex  1.410000e+02 -9.450000e+01  2.110000e+02
    endloop
  endfacet
  facet normal  0.000000e+00  0.000000e+00  1.000000e+00
    outer loop
      vertex  3.500000e+01 -9.450000e+01  2.110000e+02
      vertex  3.500000e+01 -3.390000e+02  2.110000e+02
      vertex  1.410000e+02 -9.450000e+01  2.110000e+02
    endloop
  endfacet
  facet normal  0.000000e+00  0.000000e+00  1.000000e+00
    outer loop
      vertex  1.410000e+02 -9.450000e+01  2.110000e+02
      vertex  3.500000e+01 -3.390000e+02  2.110000e+02
      vertex  1.410000e+02 -3.390000e+02  2.110000e+02
    endloop
  endfacet
  facet normal  0.000000e+00  1.000000e+00  0.000000e+00
    outer loop
      vertex  1.410000e+02  1.500000e+02  2.110000e+02
      vertex  2.470000e+02  1.500000e+02  2.110000e+02
      vertex  1.410000e+02  1.500000e+02  2.750000e+01
    endloop
  endfacet
  facet normal  0.000000e+00  1.000000e+00  0.000000e+00
    outer loop
      vertex  1.410000e+02  1.500000e+02  2.750000e+01
      vertex  2.470000e+02  1.500000e+02  2.110000e+02
      vertex  2.470000e+02  1.500000e+02  2.750000e+01
    endloop
  endfacet
  facet normal  0.000000e+00  1.000000e+00  0.000000e+00
    outer loop
      vertex  1.410000e+02  1.500000e+02  2.750000e+01
      vertex  2.470000e+02  1.500000e+02  2.750000e+01
      vertex  1.410000e+02  1.500000e+02 -1.560000e+02
    endloop
  endfacet
  facet normal  0.000000e+00  1.000000e+00  0.000000e+00
    outer loop
      vertex  1.410000e+02  1.500000e+02 -1.560000e+02
      vertex  2.470000e+02  1.500000e+02  2.750000e+01
      vertex  2.470000e+02  1.500000e+02 -1.560000e+02
    endloop
  endfacet
  facet normal  0.000000e+00  1.000000e+00  0.000000e+00
    outer loop
      vertex  3.500000e+01  1.500000e+02  2.110000e+02
      vertex  1.410000e+02  1.500000e+02  2.110000e+02
      vertex  3.500000e+01  1.500000e+02  2.750000e+01
    endloop
  endfacet
  facet normal  0.000000e+00  1.000000e+00  0.000000e+00
    outer loop
      vertex  3.500000e+01  1.500000e+02  2.750000e+01
      vertex  1.410000e+02  1.500000e+02  2.110000e+02
      vertex  1.410000e+02  1.500000e+02  2.750000e+01
    endloop
  endfacet
  facet normal  0.000000e+00  1.000000e+00  0.000000e+00
    outer loop
      vertex  3.500000e+01  1.500000e+02  2.750000e+01
      vertex  1.410000e+02  1.500000e+02  2.750000e+01
      vertex  3.500000e+01  1.500000e+02 -1.560000e+02
    endloop
  endfacet
  facet normal  0.000000e+00  1.000000e+00  0.000000e+00
    outer loop
      vertex  3.500000e+01  1.500000e+02 -1.560000e+02
      vertex  1.410000e+02  1.500000e+02  2.750000e+01
      vertex  1.410000e+02  1.500000e+02 -1.560000e+02
    endloop
  endfacet
  facet normal  0.000000e+00  0.000000e+00 -1.000000e+00
    outer loop
      vertex  1.410000e+02 -3.390000e+02 -1.560000e+02
      vertex  1.410000e+02 -9.450000e+01 -1.560000e+02
      vertex  2.470000e+02 -3.390000e+02 -1.560000e+02
    endloop
  endfacet
  facet normal  0.000000e+00  0.000000e+00 -1.000000e+00
    outer loop
      vertex  2.470000e+02 -3.390000e+02 -1.560000e+02
      vertex  1.410000e+02 -9.450000e+01 -1.560000e+02
      vertex  2.470000e+02 -9.450000e+01 -1.560000e+02
    endloop
  endfacet
  facet normal  0.000000e+00  0.000000e+00 -1.000000e+00
    outer loop
      vertex  1.410000e+02 -9.450000e+01 -1.560000e+02
      vertex  1.410000e+02  1.500000e+02 -1.560000e+02
      vertex  2.470000e+02 -9.450000e+01 -1.560000e+02
    endloop
  endfacet
  facet normal  0.000000e+00  0.000000e+00 -1.000000e+00
    outer loop
      vertex  2.470000e+02 -9.450000e+01 -1.560000e+02
      vertex  1.410000e+02  1.500000e+02 -1.560000e+02
      vertex  2.470000e+02  1.500000e+02 -1.560000e+02
    endloop
  endfacet
  facet normal  0.000000e+00  0.000000e+00 -1.000000e+00
    outer loop
      vertex  3.500000e+01 -3.390000e+02 -1.560000e+02
      vertex  3.500000e+01 -9.450000e+01 -1.560000e+02
      vertex  1.410000e+02 -3.390000e+02 -1.560000e+02
    endloop
  endfacet
  facet normal  0.000000e+00  0.000000e+00 -1.000000e+00
    outer loop
      vertex  1.410000e+02 -3.390000e+02 -1.560000e+02
      vertex  3.500000e+01 -9.450000e+01 -1.560000e+02
      vertex  1.410000e+02 -9.450000e+01 -1.560000e+02
    endloop
  endfacet
  facet normal  0.000000e+00  0.000000e+00 -1.000000e+00
    outer loop
      vertex  3.500000e+01 -9.450000e+01 -1.560000e+02
      vertex  3.500000e+01  1.500000e+02 -1.560000e+02
      vertex  1.410000e+02 -9.450000e+01 -1.560000e+02
    endloop
  endfacet
  facet normal  0.000000e+00  0.000000e+00 -1.000000e+00
    outer loop
      vertex  1.410000e+02 -9.450000e+01 -1.560000e+02
      vertex  3.500000e+01  1.500000e+02 -1.560000e+02
      vertex  1.410000e+02  1.500000e+02 -1.560000e+02
    endloop
  endfacet
  facet normal  0.000000e+00 -1.000000e+00  0.000000e+00
    outer loop
      vertex  1.410000e+02 -3.390000e+02 -1.560000e+02
      vertex  2.470000e+02 -3.390000e+02 -1.560000e+02
      vertex  1.410000e+02 -3.390000e+02  2.750000e+01
    endloop
  endfacet
  facet normal  0.000000e+00 -1.000000e+00  0.000000e+00
    outer loop
      vertex  1.410000e+02 -3.390000e+02  2.750000e+01
      vertex  2.470000e+02 -3.390000e+02 -1.560000e+02
      vertex  2.470000e+02 -3.390000e+02  2.750000e+01
    endloop
  endfacet
  facet normal  0.000000e+00 -1.000000e+00  0.000000e+00
    outer loop
      vertex  1.410000e+02 -3.390000e+02  2.750000e+01
      vertex  2.470000e+02 -3.390000e+02  2.750000e+01
      vertex  1.410000e+02 -3.390000e+02  2.110000e+02
    endloop
  endfacet
  facet normal  0.000000e+00 -1.000000e+00  0.000000e+00
    outer loop
      vertex  1.410000e+02 -3.390000e+02  2.110000e+02
      vertex  2.470000e+02 -3.390000e+02  2.750000e+01
      vertex  2.470000e+02 -3.390000e+02  2.110000e+02
    endloop
  endfacet
  facet normal  0.000000e+00 -1.000000e+00  0.000000e+00
    outer loop
      vertex  3.500000e+01 -3.390000e+02 -1.560000e+02
      vertex  1.410000e+02 -3.390000e+02 -1.560000e+02
      vertex  3.500000e+01 -3.390000e+02  2.750000e+01
    endloop
  endfacet
  facet normal  0.000000e+00 -1.000000e+00  0.000000e+00
    outer loop
      vertex  3.500000e+01 -3.390000e+02  2.750000e+01
      vertex  1.410000e+02 -3.390000e+02 -1.560000e+02
      vertex  1.410000e+02 -3.390000e+02  2.750000e+01
    endloop
  endfacet
  facet normal  0.000000e+00 -1.000000e+00  0.000000e+00
    outer loop
      vertex  3.500000e+01 -3.390000e+02  2.750000e+01
      vertex  1.410000e+02 -3.390000e+02  2.750000e+01
      vertex  3.500000e+01 -3.390000e+02  2.110000e+02
    endloop
  endfacet
  facet normal  0.000000e+00 -1.000000e+00  0.000000e+00
    outer loop
      vertex  3.500000e+01 -3.390000e+02  2.110000e+02
      vertex  1.410000e+02 -3.390000e+02  2.750000e+01
      vertex  1.410000e+02 -3.390000e+02  2.110000e+02
    endloop
  endfacet
endsolid CATIA STL
